<?xml version="1.0" encoding="UTF-8"?>
<svg xmlns="http://www.w3.org/2000/svg" xmlns:xlink="http://www.w3.org/1999/xlink" width="515pt" height="501pt" viewBox="0 0 515 501" version="1.1">
<g id="surface1">
<path style="fill-rule:evenodd;fill:rgb(0%,50.976563%,78.90625%);fill-opacity:1;stroke-width:42.366;stroke-linecap:butt;stroke-linejoin:miter;stroke:rgb(0%,0%,0%);stroke-opacity:1;stroke-miterlimit:4;" d="M 987.578125 269.140625 C 663.90625 685.664063 421.40625 1092.1875 237.65625 1585.390625 C 61.445313 2142.1875 2.539063 2609.648438 26.835938 3192.8125 C 339.960938 3650.859375 674.453125 3965.46875 1125.46875 4289.6875 C 1588.671875 4585.15625 2059.765625 4799.921875 2576.640625 4987.734375 C 3091.367188 4797.773438 3561.5625 4584.53125 4023.789063 4289.6875 C 4476.796875 3963.945313 4806.523438 3648.359375 5126.40625 3192.8125 C 5142.617188 2609.101563 5088.085938 2143.203125 4911.5625 1585.390625 C 4732.265625 1104.375 4474.84375 677.460938 4165.664063 269.140625 C 3627.65625 131.328125 3128.789063 39.804688 2572.578125 21.835938 C 2019.648438 40.039063 1522.1875 130.3125 987.578125 269.140625 Z M 987.578125 269.140625 " transform="matrix(0.1,0,0,-0.1,0,501)"/>
<path style="fill-rule:evenodd;fill:rgb(100%,100%,100%);fill-opacity:1;stroke-width:42.423;stroke-linecap:butt;stroke-linejoin:miter;stroke:rgb(10.594177%,9.812927%,9.423828%);stroke-opacity:1;stroke-miterlimit:4;" d="M 2127.617188 2244.921875 L 3007.03125 2293.476563 L 3221.757813 3553.398438 C 3238.203125 3696.054688 3368.164063 3709.453125 3487.304688 3728.476563 C 3393.085938 3885.46875 3248.4375 3922.539063 3053.28125 3839.765625 C 2988.984375 4086.914063 2892.265625 3923.945313 2746.914063 4092.421875 C 2746.914063 4064.6875 2746.914063 4036.992188 2746.914063 4009.257813 C 2624.0625 4038.75 2603.945313 4096.367188 2553.984375 4148.359375 C 2504.023438 4096.367188 2483.90625 4038.75 2361.054688 4009.257813 C 2361.054688 4036.992188 2361.054688 4064.6875 2361.054688 4092.421875 C 2215.664063 3923.945313 2118.945313 4086.914063 2054.6875 3839.765625 C 1859.53125 3922.539063 1714.84375 3885.46875 1620.625 3728.476563 C 1739.804688 3709.453125 1869.765625 3696.054688 1886.171875 3553.398438 Z M 2127.617188 2244.921875 " transform="matrix(0.1,0,0,-0.1,0,501)"/>
<path style="fill-rule:evenodd;fill:rgb(100%,100%,100%);fill-opacity:1;stroke-width:42.423;stroke-linecap:butt;stroke-linejoin:miter;stroke:rgb(10.594177%,9.812927%,9.423828%);stroke-opacity:1;stroke-miterlimit:4;" d="M 2099.21875 1855.859375 C 2077.539063 2234.101563 2156.5625 2553.320313 2581.757813 2626.171875 C 3006.953125 2553.320313 3085.976563 2234.101563 3064.257813 1855.859375 C 2321.367188 1880.117188 2099.21875 1855.859375 2099.21875 1855.859375 Z M 2099.21875 1855.859375 " transform="matrix(0.1,0,0,-0.1,0,501)"/>
<path style="fill-rule:evenodd;fill:rgb(100%,100%,100%);fill-opacity:1;stroke-width:42.423;stroke-linecap:butt;stroke-linejoin:miter;stroke:rgb(10.594177%,9.812927%,9.423828%);stroke-opacity:1;stroke-miterlimit:4;" d="M 2371.601563 2987.070313 C 2373.828125 2848.242188 2382.734375 2695.585938 2384.960938 2556.796875 C 2393.242188 2237.304688 2142.460938 1924.101563 2004.335938 1966.875 C 1812.890625 2075.625 1982.109375 2219.0625 1957.578125 2355.507813 C 1944.648438 2557.304688 1853.203125 2587.1875 1663.789063 2577.617188 C 1486.289063 2527.304688 1298.164063 2466.015625 1102.8125 2397.148438 C 885.78125 2333.515625 741.09375 2479.296875 802.34375 2653.945313 C 837.929688 2762.695313 881.953125 2873.867188 953.164063 2982.578125 C 982.851563 3039.296875 979.804688 3128.164063 929.21875 3181.367188 C 926.835938 3085.859375 898.945313 3001.132813 816.523438 2922.734375 C 617.578125 2742.34375 569.414063 2611.71875 568.984375 2493.125 C 568.476563 2340.820313 639.0625 2241.71875 795.664063 2175.078125 C 746.679688 2177.421875 693.984375 2195.3125 645.039063 2197.617188 C 647.695313 2018.28125 712.265625 1933.125 842.382813 1883.59375 C 795.664063 1888.242188 748.90625 1900.664063 702.148438 1905.273438 C 721.328125 1779.335938 771.757813 1676.171875 939.648438 1626.835938 C 904.023438 1624.53125 864.648438 1626.09375 829.023438 1623.789063 C 822.109375 1460.3125 920.039063 1374.726563 1122.851563 1367.03125 C 1082.8125 1360.078125 1042.734375 1349.21875 1002.65625 1342.304688 C 1077.578125 1123.085938 1215.78125 1065.9375 1570.273438 1107.1875 C 1790.976563 1132.851563 1979.21875 1167.773438 2131.210938 1279.84375 C 2396.132813 998.632813 2745.9375 998.632813 3010.898438 1279.84375 C 3162.851563 1167.773438 3351.054688 1132.851563 3571.757813 1107.1875 C 3926.289063 1065.9375 4064.492188 1123.085938 4139.375 1342.304688 C 4099.335938 1349.21875 4059.257813 1360.078125 4019.21875 1367.03125 C 4222.109375 1374.726563 4320.039063 1460.3125 4313.007813 1623.789063 C 4277.382813 1626.09375 4238.046875 1624.53125 4202.421875 1626.835938 C 4370.273438 1676.171875 4420.703125 1779.335938 4439.882813 1905.273438 C 4393.125 1900.664063 4346.40625 1888.242188 4299.648438 1883.59375 C 4429.804688 1933.125 4494.335938 2018.28125 4497.109375 2197.617188 C 4448.085938 2195.3125 4395.351563 2177.421875 4346.40625 2175.078125 C 4503.007813 2241.71875 4573.59375 2340.820313 4573.046875 2493.125 C 4572.65625 2611.71875 4524.492188 2742.34375 4325.546875 2922.734375 C 4243.085938 3001.132813 4215.234375 3085.859375 4212.851563 3181.367188 C 4162.265625 3128.164063 4159.21875 3039.296875 4188.867188 2982.578125 C 4260.078125 2873.867188 4304.101563 2762.695313 4339.726563 2653.945313 C 4400.976563 2479.296875 4256.289063 2333.515625 4039.21875 2397.148438 C 3843.867188 2466.015625 3655.78125 2527.304688 3478.28125 2577.617188 C 3288.867188 2587.1875 3197.460938 2557.304688 3184.453125 2355.507813 C 3159.960938 2219.0625 3329.140625 2075.625 3137.734375 1966.875 C 2999.609375 1924.101563 2748.789063 2237.304688 2757.109375 2556.796875 C 2759.335938 2695.585938 2768.203125 2848.242188 2770.46875 2987.070313 C 2772.65625 3125.859375 2371.601563 2987.070313 2371.601563 2987.070313 Z M 2371.601563 2987.070313 " transform="matrix(0.1,0,0,-0.1,0,501)"/>
<path style="fill-rule:evenodd;fill:rgb(100%,100%,100%);fill-opacity:1;stroke-width:42.423;stroke-linecap:butt;stroke-linejoin:miter;stroke:rgb(0%,0%,0%);stroke-opacity:1;stroke-miterlimit:4;" d="M 2566.171875 558.554688 C 2022.1875 980.429688 1791.992188 368.59375 1328.476563 474.0625 C 1429.6875 587.1875 1430.742188 762.65625 1431.796875 896.523438 C 1918.046875 896.523438 2046.367188 1259.570313 2566.171875 989.609375 C 3085.9375 1259.570313 3214.257813 896.523438 3700.507813 896.523438 C 3701.601563 762.65625 3702.65625 587.1875 3803.828125 474.0625 C 3340.3125 368.59375 3110.117188 980.429688 2566.171875 558.554688 Z M 2566.171875 558.554688 " transform="matrix(0.1,0,0,-0.1,0,501)"/>
<path style="fill-rule:evenodd;fill:rgb(89.0625%,11.767578%,14.109802%);fill-opacity:1;stroke-width:42.423;stroke-linecap:butt;stroke-linejoin:miter;stroke:rgb(10.594177%,9.812927%,9.423828%);stroke-opacity:1;stroke-miterlimit:4;" d="M 2587.1875 2491.640625 C 2646.09375 2293.398438 2743.085938 2095.15625 2866.132813 1896.875 C 2918.242188 1736.09375 2910.234375 1596.171875 2769.960938 1502.03125 C 2630.46875 1601.210938 2491.015625 1581.210938 2351.5625 1507.03125 C 2233.710938 1646.132813 2230.507813 1757.773438 2279.414063 1856.914063 C 2338.710938 1968.515625 2398.046875 2080.15625 2457.34375 2191.757813 C 2493.90625 1987.34375 2527.1875 1771.015625 2616.054688 1756.953125 C 2446.875 2121.328125 2486.71875 2340.46875 2587.1875 2491.640625 Z M 2587.1875 2491.640625 " transform="matrix(0.1,0,0,-0.1,0,501)"/>
<path style="fill-rule:evenodd;fill:rgb(100%,100%,100%);fill-opacity:1;stroke-width:42.423;stroke-linecap:butt;stroke-linejoin:miter;stroke:rgb(10.594177%,9.812927%,9.423828%);stroke-opacity:1;stroke-miterlimit:4;" d="M 4353.867188 2173.242188 L 4088.984375 2111.445313 " transform="matrix(0.1,0,0,-0.1,0,501)"/>
<path style="fill-rule:evenodd;fill:rgb(100%,100%,100%);fill-opacity:1;stroke-width:42.423;stroke-linecap:butt;stroke-linejoin:miter;stroke:rgb(10.594177%,9.812927%,9.423828%);stroke-opacity:1;stroke-miterlimit:4;" d="M 4310.625 1886.71875 L 4067.34375 1841.757813 " transform="matrix(0.1,0,0,-0.1,0,501)"/>
<path style="fill-rule:evenodd;fill:rgb(100%,100%,100%);fill-opacity:1;stroke-width:42.423;stroke-linecap:butt;stroke-linejoin:miter;stroke:rgb(10.594177%,9.812927%,9.423828%);stroke-opacity:1;stroke-miterlimit:4;" d="M 4213.359375 1633.867188 L 4002.460938 1611.40625 " transform="matrix(0.1,0,0,-0.1,0,501)"/>
<path style="fill-rule:evenodd;fill:rgb(100%,100%,100%);fill-opacity:1;stroke-width:42.423;stroke-linecap:butt;stroke-linejoin:miter;stroke:rgb(10.594177%,9.812927%,9.423828%);stroke-opacity:1;stroke-miterlimit:4;" d="M 4029.492188 1364.179688 L 3851.09375 1336.09375 " transform="matrix(0.1,0,0,-0.1,0,501)"/>
<path style="fill-rule:evenodd;fill:rgb(100%,100%,100%);fill-opacity:1;stroke-width:42.423;stroke-linecap:butt;stroke-linejoin:miter;stroke:rgb(10.594177%,9.812927%,9.423828%);stroke-opacity:1;stroke-miterlimit:4;" d="M 774.882813 2173.242188 L 1039.804688 2111.445313 " transform="matrix(0.1,0,0,-0.1,0,501)"/>
<path style="fill-rule:evenodd;fill:rgb(100%,100%,100%);fill-opacity:1;stroke-width:42.423;stroke-linecap:butt;stroke-linejoin:miter;stroke:rgb(10.594177%,9.812927%,9.423828%);stroke-opacity:1;stroke-miterlimit:4;" d="M 818.125 1886.71875 L 1061.445313 1841.757813 " transform="matrix(0.1,0,0,-0.1,0,501)"/>
<path style="fill-rule:evenodd;fill:rgb(100%,100%,100%);fill-opacity:1;stroke-width:42.423;stroke-linecap:butt;stroke-linejoin:miter;stroke:rgb(10.594177%,9.812927%,9.423828%);stroke-opacity:1;stroke-miterlimit:4;" d="M 915.46875 1633.867188 L 1126.289063 1611.40625 " transform="matrix(0.1,0,0,-0.1,0,501)"/>
<path style="fill-rule:evenodd;fill:rgb(100%,100%,100%);fill-opacity:1;stroke-width:42.423;stroke-linecap:butt;stroke-linejoin:miter;stroke:rgb(10.594177%,9.812927%,9.423828%);stroke-opacity:1;stroke-miterlimit:4;" d="M 1099.257813 1364.179688 L 1277.695313 1336.09375 " transform="matrix(0.1,0,0,-0.1,0,501)"/>
<path style="fill-rule:evenodd;fill:rgb(100%,100%,100%);fill-opacity:1;stroke-width:42.423;stroke-linecap:butt;stroke-linejoin:miter;stroke:rgb(0%,0%,0%);stroke-opacity:1;stroke-miterlimit:4;" d="M 1416.71875 689.570313 C 1923.242188 671.328125 1958.28125 1124.179688 2566.171875 797.96875 C 3174.023438 1124.179688 3209.101563 671.328125 3715.664063 689.570313 " transform="matrix(0.1,0,0,-0.1,0,501)"/>
<path style="fill:none;stroke-width:42.423;stroke-linecap:butt;stroke-linejoin:miter;stroke:rgb(10.594177%,9.812927%,9.423828%);stroke-opacity:1;stroke-miterlimit:4;" d="M 2563.554688 1000.820313 L 2563.554688 565.078125 " transform="matrix(0.1,0,0,-0.1,0,501)"/>
<path style="fill-rule:evenodd;fill:rgb(100%,100%,100%);fill-opacity:1;stroke-width:42.423;stroke-linecap:butt;stroke-linejoin:miter;stroke:rgb(10.594177%,9.812927%,9.423828%);stroke-opacity:1;stroke-miterlimit:4;" d="M 2048.789063 3847.539063 L 2185.78125 3125 " transform="matrix(0.1,0,0,-0.1,0,501)"/>
<path style="fill-rule:evenodd;fill:rgb(100%,100%,100%);fill-opacity:1;stroke-width:42.423;stroke-linecap:butt;stroke-linejoin:miter;stroke:rgb(10.594177%,9.812927%,9.423828%);stroke-opacity:1;stroke-miterlimit:4;" d="M 2363.398438 4011.015625 L 2393.828125 3235.742188 " transform="matrix(0.1,0,0,-0.1,0,501)"/>
<path style="fill-rule:evenodd;fill:rgb(100%,100%,100%);fill-opacity:1;stroke-width:42.423;stroke-linecap:butt;stroke-linejoin:miter;stroke:rgb(10.594177%,9.812927%,9.423828%);stroke-opacity:1;stroke-miterlimit:4;" d="M 2743.984375 4021.5625 L 2723.671875 3246.289063 " transform="matrix(0.1,0,0,-0.1,0,501)"/>
<path style="fill-rule:evenodd;fill:rgb(100%,100%,100%);fill-opacity:1;stroke-width:42.423;stroke-linecap:butt;stroke-linejoin:miter;stroke:rgb(10.594177%,9.812927%,9.423828%);stroke-opacity:1;stroke-miterlimit:4;" d="M 3058.632813 3852.8125 L 2941.914063 3130.273438 " transform="matrix(0.1,0,0,-0.1,0,501)"/>
<path style="fill-rule:evenodd;fill:rgb(100%,100%,100%);fill-opacity:1;stroke-width:42.423;stroke-linecap:butt;stroke-linejoin:miter;stroke:rgb(10.594177%,9.812927%,9.423828%);stroke-opacity:1;stroke-miterlimit:4;" d="M 2574.453125 2664.023438 C 2628.789063 2792.421875 2777.03125 2799.84375 2772.539063 2979.492188 C 2767.1875 3194.101563 2666.09375 3263.203125 2574.453125 3261.71875 C 2482.851563 3263.203125 2381.71875 3194.101563 2376.367188 2979.492188 C 2371.875 2799.84375 2520.15625 2792.421875 2574.453125 2664.023438 Z M 2574.453125 2664.023438 " transform="matrix(0.1,0,0,-0.1,0,501)"/>
<path style="fill-rule:evenodd;fill:rgb(100%,100%,100%);fill-opacity:1;stroke-width:42.423;stroke-linecap:butt;stroke-linejoin:miter;stroke:rgb(10.594177%,9.812927%,9.423828%);stroke-opacity:1;stroke-miterlimit:4;" d="M 3493.242188 2580.859375 C 3243.789063 2365.351563 3401.640625 2188.359375 3524.609375 1981.484375 C 3693.90625 1555.820313 3367.96875 1340.859375 3016.835938 1271.40625 " transform="matrix(0.1,0,0,-0.1,0,501)"/>
<path style="fill-rule:evenodd;fill:rgb(100%,100%,100%);fill-opacity:1;stroke-width:42.423;stroke-linecap:butt;stroke-linejoin:miter;stroke:rgb(10.594177%,9.812927%,9.423828%);stroke-opacity:1;stroke-miterlimit:4;" d="M 1677.539063 2580.859375 C 1927.03125 2365.351563 1769.21875 2188.359375 1646.210938 1981.484375 C 1476.875 1555.820313 1802.890625 1340.859375 2153.984375 1271.40625 " transform="matrix(0.1,0,0,-0.1,0,501)"/>
<path style="fill-rule:evenodd;fill:rgb(100%,100%,100%);fill-opacity:1;stroke-width:42.423;stroke-linecap:butt;stroke-linejoin:miter;stroke:rgb(10.594177%,9.812927%,9.423828%);stroke-opacity:1;stroke-miterlimit:4;" d="M 2562.851563 1113.90625 C 2664.335938 1111.054688 2727.734375 1113.90625 2758.085938 1174.0625 C 2770.46875 1273.671875 2733.28125 1318.046875 2679.53125 1337.34375 C 2655.46875 1354.296875 2673.945313 1415.351563 2667.148438 1458.476563 C 2658.398438 1496.992188 2618.242188 1500.429688 2562.851563 1500.664063 C 2507.539063 1500.429688 2467.34375 1496.992188 2458.632813 1458.476563 C 2451.796875 1415.351563 2470.3125 1354.296875 2446.210938 1337.34375 C 2392.460938 1318.046875 2355.273438 1273.671875 2367.65625 1174.0625 C 2398.007813 1113.90625 2461.40625 1111.054688 2562.851563 1113.90625 Z M 2562.851563 1113.90625 " transform="matrix(0.1,0,0,-0.1,0,501)"/>
<path style=" stroke:none;fill-rule:evenodd;fill:rgb(16.868591%,16.479492%,16.088867%);fill-opacity:1;" d="M 50.238281 166.4375 L 51.4375 164.449219 L 52.246094 164.679688 L 59.398438 152.792969 L 58.867188 152.089844 L 60.078125 150.078125 L 68.753906 152.085938 L 68.007813 155.507813 C 66.457031 155.363281 65.414063 155.316406 64.894531 155.351563 C 63.863281 155.425781 62.9375 155.679688 62.113281 156.109375 C 61.488281 156.429688 61.019531 156.847656 60.714844 157.359375 C 60.566406 157.601563 60.519531 157.808594 60.585938 157.96875 C 60.632813 158.132813 60.863281 158.339844 61.257813 158.597656 L 72.917969 166.167969 C 73.609375 166.617188 74.054688 166.875 74.257813 166.9375 C 74.464844 166.996094 74.652344 167 74.828125 166.945313 C 75.003906 166.894531 75.167969 166.765625 75.332031 166.578125 C 75.488281 166.390625 75.847656 165.839844 76.398438 164.921875 L 79.207031 166.742188 L 73.027344 177.015625 L 70.222656 175.195313 L 70.59375 174.574219 C 71.007813 173.890625 71.226563 173.425781 71.261719 173.179688 C 71.292969 172.933594 71.234375 172.695313 71.089844 172.457031 C 70.9375 172.222656 70.535156 171.890625 69.878906 171.464844 L 57.960938 163.722656 C 57.621094 163.503906 57.382813 163.40625 57.242188 163.429688 C 57.113281 163.453125 56.964844 163.59375 56.804688 163.855469 C 56.492188 164.382813 56.332031 165.089844 56.316406 165.976563 C 56.308594 166.867188 56.503906 167.785156 56.878906 168.734375 C 57.03125 169.113281 57.535156 170.035156 58.390625 171.503906 L 55.785156 173.652344 Z M 65.769531 143.601563 L 73.277344 134.304688 L 75.8125 136.515625 L 75.070313 137.433594 C 74.734375 137.855469 74.535156 138.191406 74.492188 138.453125 C 74.445313 138.714844 74.476563 138.964844 74.59375 139.199219 C 74.710938 139.441406 75.039063 139.804688 75.589844 140.285156 L 82.257813 146.101563 C 83.503906 147.183594 84.53125 147.859375 85.359375 148.136719 C 86.183594 148.410156 86.964844 148.425781 87.707031 148.179688 C 88.441406 147.9375 89.117188 147.445313 89.722656 146.695313 C 90.328125 145.949219 90.683594 145.132813 90.800781 144.25 C 90.921875 143.363281 90.816406 142.554688 90.476563 141.835938 C 90.140625 141.113281 89.355469 140.214844 88.109375 139.128906 L 80.757813 132.71875 C 80.453125 132.449219 80.195313 132.300781 80.003906 132.265625 C 79.738281 132.226563 79.503906 132.265625 79.28125 132.382813 C 79.128906 132.460938 78.839844 132.769531 78.421875 133.285156 L 77.832031 134.019531 L 75.292969 131.808594 L 81.648438 123.9375 L 84.183594 126.148438 L 83.6875 126.765625 C 83.195313 127.375 82.921875 127.777344 82.878906 127.984375 C 82.800781 128.292969 82.835938 128.589844 82.953125 128.859375 C 83.023438 129.050781 83.359375 129.40625 83.957031 129.925781 L 91.175781 136.222656 C 92.503906 137.382813 93.460938 138.554688 94.035156 139.742188 C 94.8125 141.363281 95.050781 143.082031 94.746094 144.886719 C 94.453125 146.691406 93.628906 148.421875 92.277344 150.089844 C 91.335938 151.265625 90.3125 152.164063 89.21875 152.792969 C 88.121094 153.417969 86.972656 153.796875 85.765625 153.9375 C 84.5625 154.066406 83.488281 153.957031 82.546875 153.613281 C 81.605469 153.265625 80.433594 152.476563 79.035156 151.257813 L 71.960938 145.085938 C 71.308594 144.519531 70.859375 144.191406 70.613281 144.101563 C 70.367188 144.007813 70.132813 144.007813 69.914063 144.097656 C 69.695313 144.183594 69.394531 144.46875 69.011719 144.9375 L 68.308594 145.8125 Z M 87.292969 116.757813 L 88.996094 115.21875 L 89.710938 115.6875 L 99.886719 106.488281 L 99.582031 105.65625 L 101.300781 104.101563 L 109.035156 108.65625 L 107.359375 111.703125 C 105.910156 111.09375 104.929688 110.730469 104.425781 110.605469 C 103.421875 110.363281 102.464844 110.324219 101.550781 110.488281 C 100.863281 110.601563 100.300781 110.863281 99.863281 111.257813 C 99.652344 111.445313 99.550781 111.625 99.5625 111.800781 C 99.570313 111.972656 99.730469 112.238281 100.035156 112.605469 L 109.058594 123.390625 C 109.589844 124.027344 109.941406 124.410156 110.121094 124.53125 C 110.296875 124.652344 110.480469 124.710938 110.660156 124.710938 C 110.839844 124.71875 111.039063 124.644531 111.246094 124.511719 C 111.453125 124.382813 111.949219 123.964844 112.734375 123.253906 L 114.902344 125.847656 L 106.109375 133.796875 L 103.9375 131.203125 L 104.46875 130.722656 C 105.058594 130.191406 105.394531 129.816406 105.503906 129.589844 C 105.597656 129.367188 105.609375 129.121094 105.535156 128.847656 C 105.464844 128.578125 105.171875 128.136719 104.660156 127.53125 L 95.4375 116.503906 C 95.175781 116.191406 94.976563 116.027344 94.839844 116.007813 C 94.707031 115.988281 94.523438 116.078125 94.296875 116.285156 C 93.847656 116.691406 93.496094 117.316406 93.234375 118.160156 C 92.976563 119.007813 92.898438 119.949219 92.996094 120.972656 C 93.035156 121.378906 93.253906 122.414063 93.660156 124.074219 L 90.566406 125.34375 Z M 124.523438 87.296875 L 133.816406 82.160156 L 135.367188 85.199219 C 134.769531 85.53125 134.414063 85.75 134.285156 85.875 C 134.160156 86 134.089844 86.15625 134.046875 86.359375 C 134.019531 86.558594 134.046875 86.753906 134.132813 86.929688 C 134.214844 87.085938 134.460938 87.390625 134.851563 87.839844 L 143.507813 97.664063 L 141.839844 88.203125 L 139.183594 85.449219 C 139.113281 85.394531 139.007813 85.28125 138.863281 85.121094 C 138.46875 84.679688 138.085938 84.425781 137.714844 84.351563 C 137.339844 84.28125 136.902344 84.375 136.398438 84.632813 L 134.84375 81.59375 L 143.671875 76.71875 L 145.222656 79.753906 L 144.507813 80.148438 C 143.996094 80.433594 143.691406 80.675781 143.605469 80.890625 C 143.488281 81.183594 143.492188 81.46875 143.632813 81.742188 C 143.734375 81.941406 144.019531 82.300781 144.476563 82.824219 L 152.152344 91.558594 L 149.550781 80.023438 C 149.367188 79.1875 149.234375 78.695313 149.171875 78.5625 C 149.039063 78.308594 148.855469 78.167969 148.605469 78.132813 C 148.359375 78.105469 147.976563 78.230469 147.472656 78.511719 L 146.703125 78.9375 L 145.148438 75.898438 L 153.171875 71.464844 L 154.726563 74.503906 C 154.148438 74.824219 153.769531 75.109375 153.585938 75.363281 C 153.398438 75.621094 153.28125 75.921875 153.246094 76.265625 C 153.214844 76.609375 153.28125 77.25 153.464844 78.183594 L 157.265625 97.347656 L 152.695313 99.871094 L 145.753906 92.429688 L 147.613281 102.679688 L 142.859375 105.308594 L 129.53125 91.085938 C 128.953125 90.464844 128.53125 90.085938 128.269531 89.957031 C 128.007813 89.824219 127.714844 89.777344 127.390625 89.808594 C 127.0625 89.839844 126.628906 90.019531 126.078125 90.335938 Z M 158.441406 69.519531 L 169.339844 65.171875 L 170.527344 68.382813 L 169.453125 68.8125 C 168.964844 69.007813 168.632813 69.207031 168.46875 69.414063 C 168.308594 69.613281 168.21875 69.851563 168.214844 70.117188 C 168.195313 70.382813 168.316406 70.867188 168.578125 71.566406 L 171.695313 80.011719 C 172.277344 81.582031 172.863281 82.699219 173.460938 83.351563 C 174.050781 84.007813 174.726563 84.417969 175.488281 84.574219 C 176.253906 84.734375 177.066406 84.640625 177.945313 84.292969 C 178.820313 83.941406 179.515625 83.414063 180.03125 82.695313 C 180.550781 81.984375 180.839844 81.222656 180.871094 80.421875 C 180.914063 79.621094 180.648438 78.441406 180.066406 76.863281 L 176.628906 67.554688 C 176.480469 67.160156 176.328125 66.902344 176.175781 66.777344 C 175.964844 66.605469 175.738281 66.523438 175.492188 66.515625 C 175.316406 66.503906 174.925781 66.628906 174.316406 66.871094 L 173.460938 67.214844 L 172.269531 64.003906 L 181.503906 60.320313 L 182.6875 63.53125 L 181.964844 63.820313 C 181.253906 64.105469 180.820313 64.324219 180.6875 64.480469 C 180.476563 64.714844 180.367188 64.988281 180.34375 65.28125 C 180.316406 65.488281 180.445313 65.964844 180.722656 66.71875 L 184.101563 75.863281 C 184.722656 77.550781 185.011719 79.058594 184.964844 80.386719 C 184.882813 82.195313 184.296875 83.816406 183.183594 85.242188 C 182.085938 86.671875 180.550781 87.769531 178.597656 88.550781 C 177.222656 89.101563 175.914063 89.375 174.660156 89.375 C 173.40625 89.363281 172.226563 89.117188 171.109375 88.632813 C 169.992188 88.140625 169.105469 87.503906 168.441406 86.726563 C 167.78125 85.949219 167.128906 84.667969 166.46875 82.898438 L 163.160156 73.933594 C 162.855469 73.113281 162.617188 72.601563 162.441406 72.398438 C 162.269531 72.191406 162.066406 72.074219 161.835938 72.039063 C 161.601563 72.003906 161.203125 72.105469 160.652344 72.324219 L 159.628906 72.734375 Z M 187.914063 58.597656 L 202.273438 55.148438 C 203.195313 54.929688 204.230469 54.773438 205.363281 54.683594 C 206.496094 54.59375 207.570313 54.738281 208.589844 55.113281 C 209.609375 55.492188 210.460938 56.078125 211.148438 56.859375 C 211.839844 57.648438 212.308594 58.605469 212.5625 59.738281 C 212.96875 61.574219 212.671875 63.21875 211.660156 64.660156 C 210.648438 66.105469 209.320313 67.207031 207.671875 67.96875 L 213.753906 72.613281 L 214.011719 72.828125 C 214.414063 73.148438 214.761719 73.371094 215.058594 73.5 C 215.351563 73.628906 215.640625 73.703125 215.914063 73.722656 C 216.1875 73.746094 216.558594 73.699219 217.015625 73.589844 L 218.015625 73.351563 L 218.761719 76.695313 L 211.296875 78.488281 L 201.496094 69.851563 L 199.558594 70.316406 L 200.632813 75.144531 C 200.816406 75.972656 200.972656 76.496094 201.113281 76.699219 C 201.253906 76.902344 201.433594 77.035156 201.652344 77.101563 C 201.871094 77.160156 202.277344 77.125 202.863281 76.984375 L 203.9375 76.726563 L 204.679688 80.074219 L 193.296875 82.808594 L 192.546875 79.460938 L 193.578125 79.214844 C 194.128906 79.082031 194.503906 78.925781 194.703125 78.75 C 194.902344 78.574219 195.035156 78.351563 195.089844 78.085938 C 195.113281 77.925781 195.046875 77.488281 194.882813 76.761719 L 191.855469 63.132813 C 191.738281 62.601563 191.613281 62.230469 191.480469 62.027344 C 191.34375 61.824219 191.179688 61.707031 190.96875 61.679688 C 190.675781 61.621094 190.355469 61.628906 190.007813 61.710938 L 189.546875 61.84375 L 188.679688 62.050781 Z M 197.378906 60.511719 L 198.773438 66.777344 L 202.226563 65.949219 C 203.589844 65.625 204.574219 65.25 205.1875 64.828125 C 205.804688 64.40625 206.230469 63.910156 206.460938 63.34375 C 206.691406 62.777344 206.730469 62.144531 206.578125 61.449219 C 206.433594 60.808594 206.15625 60.300781 205.734375 59.921875 C 205.320313 59.542969 204.785156 59.3125 204.15625 59.234375 C 203.523438 59.15625 202.546875 59.273438 201.21875 59.589844 Z M 218.015625 52.121094 L 229.554688 50.4375 L 230.015625 53.84375 L 228.964844 53.996094 C 228.351563 54.085938 227.953125 54.199219 227.773438 54.335938 C 227.589844 54.480469 227.46875 54.675781 227.402344 54.933594 C 227.339844 55.1875 227.351563 55.65625 227.445313 56.339844 L 229.285156 69.957031 C 229.386719 70.695313 229.492188 71.167969 229.601563 71.367188 C 229.710938 71.566406 229.867188 71.703125 230.070313 71.765625 C 230.328125 71.875 230.691406 71.894531 231.164063 71.824219 L 232.421875 71.640625 L 232.882813 75.042969 L 221.339844 76.730469 L 220.882813 73.328125 L 221.8125 73.191406 C 222.480469 73.09375 222.914063 72.976563 223.101563 72.847656 C 223.296875 72.71875 223.421875 72.539063 223.484375 72.308594 C 223.554688 72.070313 223.546875 71.636719 223.453125 70.988281 L 221.605469 57.320313 C 221.503906 56.554688 221.386719 56.054688 221.257813 55.832031 C 221.132813 55.601563 220.941406 55.441406 220.699219 55.347656 C 220.53125 55.273438 220.136719 55.285156 219.527344 55.375 L 218.472656 55.53125 Z M 255.371094 48.433594 L 267.046875 48.644531 L 266.984375 52.085938 L 265.902344 52.066406 C 265.3125 52.054688 264.90625 52.109375 264.683594 52.226563 C 264.464844 52.347656 264.308594 52.523438 264.214844 52.75 C 264.117188 52.980469 264.066406 53.484375 264.050781 54.257813 L 263.976563 58.585938 L 272.683594 58.742188 L 272.761719 54.09375 C 272.769531 53.519531 272.742188 53.136719 272.679688 52.9375 C 272.59375 52.648438 272.445313 52.445313 272.222656 52.339844 C 272.007813 52.222656 271.53125 52.167969 270.785156 52.152344 L 269.878906 52.136719 L 269.9375 48.695313 L 281.640625 48.910156 L 281.585938 52.347656 L 280.609375 52.332031 C 279.949219 52.320313 279.507813 52.367188 279.289063 52.472656 C 279.0625 52.582031 278.914063 52.742188 278.824219 52.960938 C 278.734375 53.183594 278.683594 53.703125 278.671875 54.523438 L 278.441406 67.988281 C 278.429688 68.8125 278.472656 69.355469 278.578125 69.601563 C 278.679688 69.847656 278.847656 70.019531 279.070313 70.128906 C 279.289063 70.226563 279.796875 70.292969 280.597656 70.304688 L 281.28125 70.320313 L 281.222656 73.753906 L 269.519531 73.542969 L 269.578125 70.105469 L 270.351563 70.121094 C 271.070313 70.132813 271.554688 70.082031 271.816406 69.964844 C 272.074219 69.855469 272.257813 69.679688 272.355469 69.457031 C 272.464844 69.234375 272.515625 68.707031 272.527344 67.878906 L 272.617188 62.621094 L 263.914063 62.464844 L 263.824219 67.722656 C 263.8125 68.546875 263.839844 69.066406 263.898438 69.269531 C 264.011719 69.566406 264.183594 69.765625 264.421875 69.867188 C 264.660156 69.96875 265.144531 70.027344 265.878906 70.039063 L 266.679688 70.054688 L 266.628906 73.488281 L 254.953125 73.277344 L 255.011719 69.84375 L 255.800781 69.855469 C 256.464844 69.867188 256.925781 69.816406 257.191406 69.699219 C 257.460938 69.589844 257.640625 69.421875 257.738281 69.210938 C 257.839844 69 257.894531 68.535156 257.90625 67.808594 L 258.132813 54.308594 C 258.148438 53.464844 258.113281 52.914063 258.015625 52.65625 C 257.925781 52.402344 257.777344 52.210938 257.574219 52.089844 C 257.367188 51.964844 256.96875 51.902344 256.378906 51.890625 L 255.3125 51.875 Z M 296.78125 51.550781 L 302.09375 52.328125 L 306.640625 72.363281 C 306.886719 73.429688 307.140625 74.105469 307.410156 74.386719 C 307.679688 74.664063 308.214844 74.859375 309.019531 74.964844 L 308.558594 78.367188 L 297.359375 76.730469 L 297.816406 73.328125 L 298.503906 73.410156 C 299.117188 73.5 299.570313 73.472656 299.84375 73.339844 C 300.113281 73.207031 300.265625 73.015625 300.296875 72.769531 C 300.328125 72.558594 300.28125 72.109375 300.152344 71.414063 L 299.757813 69.074219 L 292.546875 68.019531 L 291.328125 70.378906 C 291.078125 70.882813 290.9375 71.21875 290.921875 71.378906 C 290.890625 71.566406 290.929688 71.75 291.046875 71.921875 C 291.148438 72.09375 291.347656 72.234375 291.632813 72.351563 C 291.820313 72.425781 292.347656 72.527344 293.21875 72.65625 L 292.757813 76.058594 L 283.59375 74.71875 L 284.054688 71.316406 C 284.636719 71.402344 285.078125 71.414063 285.367188 71.34375 C 285.648438 71.28125 285.894531 71.148438 286.097656 70.964844 C 286.304688 70.78125 286.550781 70.417969 286.84375 69.871094 Z M 294.257813 64.691406 L 298.992188 65.382813 L 297.605469 58.273438 Z M 318.144531 54.859375 L 327.484375 57.640625 L 330.378906 73.589844 L 332.730469 65.0625 C 332.929688 64.332031 333.015625 63.863281 332.992188 63.652344 C 332.960938 63.351563 332.859375 63.113281 332.703125 62.949219 C 332.546875 62.789063 332.199219 62.628906 331.660156 62.46875 L 330.546875 62.132813 L 331.453125 58.824219 L 340.941406 61.652344 L 340.03125 64.960938 L 338.976563 64.648438 C 338.449219 64.492188 338.054688 64.4375 337.796875 64.496094 C 337.535156 64.554688 337.335938 64.683594 337.1875 64.871094 C 337.035156 65.0625 336.863281 65.515625 336.664063 66.234375 L 331.566406 84.710938 L 326.839844 83.300781 L 323.164063 63.152344 L 319.765625 75.46875 C 319.570313 76.175781 319.488281 76.636719 319.519531 76.855469 C 319.546875 77.074219 319.652344 77.273438 319.839844 77.449219 C 320.015625 77.628906 320.371094 77.800781 320.898438 77.957031 L 322.003906 78.285156 L 321.089844 81.589844 L 311.554688 78.746094 L 312.464844 75.445313 L 313.449219 75.738281 C 314.003906 75.902344 314.390625 75.960938 314.617188 75.925781 C 314.847656 75.886719 315.058594 75.769531 315.242188 75.5625 C 315.433594 75.359375 315.59375 75.023438 315.722656 74.542969 L 319.503906 60.84375 C 319.652344 60.316406 319.699219 59.914063 319.65625 59.636719 C 319.617188 59.359375 319.511719 59.136719 319.359375 58.972656 C 319.203125 58.8125 318.902344 58.664063 318.464844 58.535156 L 317.230469 58.167969 Z M 346.390625 63.675781 L 358.089844 68.339844 C 360.742188 69.402344 362.691406 70.679688 363.933594 72.183594 C 365.183594 73.6875 365.960938 75.480469 366.253906 77.570313 C 366.546875 79.660156 366.257813 81.910156 365.367188 84.316406 C 364.753906 85.988281 363.953125 87.394531 362.992188 88.519531 C 362.03125 89.648438 360.886719 90.558594 359.558594 91.238281 C 358.226563 91.925781 356.925781 92.320313 355.65625 92.425781 C 354.691406 92.496094 353.425781 92.371094 351.839844 92.03125 C 350.261719 91.695313 349.015625 91.339844 348.121094 90.984375 L 337.820313 86.875 L 339.003906 83.664063 L 339.769531 83.972656 C 340.421875 84.230469 340.871094 84.347656 341.117188 84.3125 C 341.359375 84.285156 341.589844 84.164063 341.816406 83.949219 C 341.980469 83.773438 342.195313 83.324219 342.460938 82.613281 L 347.136719 69.945313 C 347.398438 69.234375 347.523438 68.765625 347.507813 68.515625 C 347.492188 68.273438 347.402344 68.0625 347.230469 67.871094 C 347.0625 67.6875 346.640625 67.460938 345.96875 67.191406 L 345.203125 66.886719 Z M 353.175781 70.652344 L 347.847656 85.070313 C 347.671875 85.558594 347.589844 85.871094 347.59375 86.003906 C 347.617188 86.203125 347.703125 86.367188 347.84375 86.496094 C 347.992188 86.621094 348.371094 86.8125 349.003906 87.0625 C 350.753906 87.761719 352.222656 88.023438 353.421875 87.859375 C 354.613281 87.691406 355.742188 87.113281 356.804688 86.117188 C 357.867188 85.121094 358.71875 83.773438 359.347656 82.066406 C 359.972656 80.378906 360.226563 78.800781 360.117188 77.324219 C 360.007813 75.855469 359.621094 74.691406 358.96875 73.84375 C 358.320313 73 357.210938 72.261719 355.636719 71.636719 Z M 382.996094 80.996094 L 387.734375 83.613281 L 385.410156 104.054688 C 385.289063 105.144531 385.308594 105.871094 385.472656 106.230469 C 385.632813 106.589844 386.070313 106.960938 386.789063 107.34375 L 385.238281 110.378906 L 375.253906 104.859375 L 376.804688 101.828125 L 377.421875 102.144531 C 377.96875 102.449219 378.402344 102.585938 378.703125 102.558594 C 379.003906 102.53125 379.210938 102.402344 379.316406 102.183594 C 379.414063 101.996094 379.519531 101.558594 379.628906 100.859375 L 380.027344 98.519531 L 373.59375 94.964844 L 371.675781 96.75 C 371.273438 97.132813 371.03125 97.398438 370.960938 97.542969 C 370.871094 97.710938 370.851563 97.898438 370.902344 98.097656 C 370.941406 98.300781 371.089844 98.5 371.316406 98.710938 C 371.464844 98.847656 371.925781 99.132813 372.703125 99.5625 L 371.148438 102.59375 L 362.980469 98.078125 L 364.53125 95.046875 C 365.050781 95.332031 365.464844 95.5 365.757813 95.539063 C 366.046875 95.578125 366.316406 95.542969 366.566406 95.441406 C 366.824219 95.34375 367.171875 95.085938 367.628906 94.675781 Z M 376.300781 92.449219 L 380.523438 94.78125 L 381.558594 87.601563 Z M 400.214844 91.46875 L 409.820313 98.722656 L 407.878906 101.507813 L 407.15625 100.960938 C 406.644531 100.578125 406.300781 100.375 406.117188 100.359375 C 405.925781 100.34375 405.773438 100.429688 405.644531 100.609375 C 405.46875 100.863281 405.355469 101.347656 405.300781 102.066406 L 404.789063 108.351563 L 410.800781 105.929688 C 411.324219 105.726563 411.617188 105.609375 411.675781 105.585938 C 411.789063 105.507813 411.878906 105.417969 411.960938 105.308594 C 412.070313 105.144531 412.101563 104.988281 412.046875 104.828125 C 411.996094 104.671875 411.769531 104.449219 411.382813 104.152344 L 410.394531 103.410156 L 412.34375 100.625 L 420.054688 106.449219 L 418.109375 109.234375 C 417.433594 108.730469 416.902344 108.457031 416.519531 108.402344 C 416.132813 108.351563 415.554688 108.476563 414.761719 108.773438 L 404.148438 112.691406 L 401.640625 116.277344 C 401.195313 116.914063 400.945313 117.355469 400.894531 117.601563 C 400.839844 117.847656 400.878906 118.082031 401.003906 118.324219 C 401.132813 118.554688 401.46875 118.882813 402.023438 119.300781 L 402.703125 119.816406 L 400.761719 122.597656 L 391.335938 115.476563 L 393.273438 112.699219 L 393.785156 113.082031 C 394.453125 113.585938 394.914063 113.859375 395.160156 113.910156 C 395.410156 113.957031 395.65625 113.90625 395.90625 113.765625 C 396.152344 113.621094 396.503906 113.226563 396.964844 112.574219 L 399.160156 109.429688 L 399.710938 97.40625 C 399.742188 96.464844 399.671875 95.796875 399.472656 95.402344 C 399.324219 95.125 398.921875 94.746094 398.265625 94.25 Z M 431.03125 117.3125 L 434.890625 121.1875 L 427.238281 140.171875 C 426.835938 141.1875 426.660156 141.890625 426.71875 142.28125 C 426.777344 142.671875 427.101563 143.15625 427.691406 143.730469 L 425.394531 146.199219 L 417.257813 138.035156 L 419.554688 135.566406 L 420.058594 136.046875 C 420.511719 136.496094 420.890625 136.753906 421.1875 136.8125 C 421.480469 136.871094 421.714844 136.804688 421.878906 136.628906 C 422.019531 136.472656 422.234375 136.082031 422.523438 135.441406 L 423.53125 133.308594 L 418.289063 128.050781 L 415.972656 129.214844 C 415.484375 129.46875 415.179688 129.65625 415.070313 129.773438 C 414.945313 129.90625 414.878906 130.082031 414.871094 130.289063 C 414.855469 130.492188 414.9375 130.730469 415.105469 130.996094 C 415.214844 131.171875 415.585938 131.578125 416.214844 132.210938 L 413.921875 134.683594 L 407.261719 128 L 409.554688 125.53125 C 409.980469 125.957031 410.335938 126.234375 410.605469 126.351563 C 410.867188 126.472656 411.140625 126.519531 411.410156 126.492188 C 411.679688 126.472656 412.089844 126.328125 412.628906 126.0625 Z M 421.5625 126.402344 L 425.003906 129.855469 L 427.898438 123.253906 Z M 446.121094 133.46875 L 451.96875 141.535156 L 445.046875 156.078125 L 451.859375 150.738281 C 452.445313 150.28125 452.785156 149.960938 452.886719 149.777344 C 453.03125 149.515625 453.09375 149.265625 453.066406 149.035156 C 453.03125 148.808594 452.847656 148.464844 452.511719 148 L 451.808594 147.03125 L 454.453125 144.960938 L 460.394531 153.152344 L 457.753906 155.222656 L 457.09375 154.316406 C 456.761719 153.859375 456.476563 153.570313 456.234375 153.457031 C 455.996094 153.339844 455.757813 153.3125 455.53125 153.375 C 455.300781 153.433594 454.898438 153.6875 454.324219 154.136719 L 439.554688 165.703125 L 436.59375 161.621094 L 445.328125 143.234375 L 435.480469 150.941406 C 434.921875 151.386719 434.585938 151.699219 434.480469 151.894531 C 434.378906 152.082031 434.34375 152.3125 434.390625 152.566406 C 434.429688 152.824219 434.617188 153.183594 434.945313 153.636719 L 435.636719 154.589844 L 432.996094 156.65625 L 427.023438 148.421875 L 429.664063 146.355469 L 430.28125 147.203125 C 430.628906 147.679688 430.902344 147.972656 431.105469 148.089844 C 431.3125 148.203125 431.550781 148.234375 431.816406 148.191406 C 432.085938 148.144531 432.40625 147.976563 432.789063 147.675781 L 443.742188 139.097656 C 444.164063 138.769531 444.433594 138.480469 444.5625 138.226563 C 444.691406 137.984375 444.738281 137.742188 444.710938 137.511719 C 444.675781 137.285156 444.523438 136.980469 444.246094 136.601563 L 443.476563 135.539063 Z M 463.289063 158.546875 L 469.464844 168.820313 L 466.65625 170.640625 L 466.097656 169.710938 C 465.769531 169.164063 465.503906 168.832031 465.3125 168.714844 C 465.113281 168.597656 464.890625 168.5625 464.640625 168.605469 C 464.386719 168.644531 463.980469 168.851563 463.421875 169.214844 L 452.199219 176.503906 C 451.589844 176.902344 451.21875 177.191406 451.089844 177.375 C 450.953125 177.558594 450.898438 177.761719 450.925781 177.984375 C 450.933594 178.269531 451.066406 178.625 451.320313 179.046875 L 451.992188 180.167969 L 449.1875 181.984375 L 443.011719 171.714844 L 445.816406 169.894531 L 446.316406 170.726563 C 446.671875 171.316406 446.949219 171.679688 447.140625 171.8125 C 447.335938 171.9375 447.546875 171.984375 447.769531 171.953125 C 448.007813 171.921875 448.382813 171.734375 448.921875 171.382813 L 460.179688 164.070313 C 460.8125 163.660156 461.203125 163.347656 461.347656 163.132813 C 461.503906 162.921875 461.566406 162.679688 461.550781 162.410156 C 461.546875 162.21875 461.371094 161.851563 461.046875 161.308594 L 460.480469 160.371094 Z M 463.289063 158.546875 "/>
</g>
</svg>
